<svg width="616" height="615" viewBox="0 0 616 615" fill="none" xmlns="http://www.w3.org/2000/svg">
<rect x="30.4805" y="30.75" width="554.269" height="554.269" rx="96.8625" fill="#2D2D2D"/>
<mask id="mask0_492_165" style="mask-type:luminance" maskUnits="userSpaceOnUse" x="77" y="128" width="462" height="360">
<path d="M538.261 128.382H77.375V487.388H538.261V128.382Z" fill="white"/>
</mask>
<g mask="url(#mask0_492_165)">
<path d="M249.701 302.507C249.844 301.938 250 301.412 250.166 300.944C251.528 303.103 252.79 306.39 253.863 311.174C252.677 314.277 251.717 316.1 250.963 316.975C250.581 317.414 250.266 317.6 250.007 317.607C249.754 317.613 249.528 317.446 249.332 317.106C249.14 316.767 248.987 316.269 248.87 315.647C248.754 315.027 248.678 314.288 248.638 313.47C248.558 311.835 248.621 309.89 248.807 307.954C248.993 306.019 249.299 304.096 249.701 302.507ZM267.874 285.336C261.576 295.326 256.67 304.156 254.179 310.366L255.175 305.837L255.182 305.838L255.175 305.806C254.434 302.507 253.714 300.495 253.029 299.46C252.687 298.942 252.348 298.657 252.01 298.588C251.667 298.517 251.342 298.673 251.05 298.987C250.761 299.3 250.488 299.776 250.242 300.369C250.206 300.457 250.173 300.548 250.136 300.641C248.774 298.571 247.313 297.58 245.828 297.331C244.31 297.077 242.785 297.605 241.35 298.524C239.919 299.443 238.57 300.756 237.404 302.083C236.238 303.41 235.248 304.754 234.531 305.735L234.454 305.839C234.129 306.283 233.863 306.644 233.67 306.886C233.564 307.017 233.481 307.11 233.421 307.163C233.408 307.172 233.398 307.18 233.391 307.186L233.385 307.191V307.178C233.385 307.146 233.391 307.1 233.405 307.038C233.431 306.915 233.478 306.739 233.554 306.502C233.707 306.03 233.959 305.326 234.328 304.341C234.76 303.184 235.351 301.642 236.119 299.638C236.657 298.233 237.284 296.601 238.002 294.715C238.849 292.494 239.762 290.086 240.736 287.516C247.781 268.911 258.022 241.866 269.86 216.563C276.597 202.165 283.848 188.333 291.325 176.942C298.799 165.55 306.492 156.609 314.105 151.983C344.605 133.452 379.603 127.487 413.391 135.061C447.179 142.635 477.766 163.302 500.161 193.693C522.552 224.084 535.427 262.403 536.686 302.398C537.945 342.394 527.512 381.704 507.086 413.914C486.665 446.125 457.463 469.333 424.24 479.757C391.039 490.174 355.783 487.211 324.217 471.346L350.442 421.73C361.184 427.128 370.814 429.815 380.583 430.267C390.372 430.719 400.297 428.928 411.621 425.374C434.278 418.265 454.192 402.438 468.116 380.474C482.041 358.515 489.153 331.713 488.296 304.449C487.439 277.184 478.663 251.063 463.396 230.345C448.129 209.627 427.276 195.535 404.237 190.37C381.197 185.206 357.327 189.273 336.53 201.91C331.325 205.074 324.15 211.927 316.172 220.81C308.193 229.694 299.404 240.615 290.966 251.92C282.529 263.224 274.444 274.914 267.874 285.336ZM250.239 300.802C250.236 300.794 250.229 300.786 250.226 300.778C250.272 300.653 250.319 300.533 250.365 300.417C250.611 299.831 250.87 299.374 251.143 299.08C251.415 298.789 251.694 298.666 251.976 298.724C252.265 298.784 252.581 299.036 252.916 299.543C253.587 300.556 254.302 302.542 255.039 305.831L253.933 310.866C252.863 306.175 251.601 302.938 250.239 300.802Z" fill="#F11A1A" stroke="#E80D0D" stroke-width="0.13697"/>
<path d="M367.122 313.263C366.979 313.832 366.823 314.358 366.657 314.826C365.295 312.667 364.033 309.38 362.963 304.596C364.146 301.493 365.106 299.67 365.86 298.795C366.242 298.356 366.558 298.17 366.817 298.163C367.069 298.157 367.295 298.324 367.491 298.664C367.684 299.003 367.84 299.502 367.953 300.123C368.069 300.743 368.145 301.482 368.185 302.299C368.265 303.934 368.202 305.88 368.016 307.816C367.83 309.751 367.524 311.674 367.122 313.263ZM348.949 330.434C355.247 320.444 360.153 311.615 362.644 305.404L361.648 309.933L361.641 309.931L361.648 309.964C362.389 313.263 363.11 315.275 363.794 316.311C364.136 316.828 364.475 317.113 364.814 317.182C365.156 317.253 365.481 317.097 365.774 316.783C366.066 316.471 366.335 315.994 366.581 315.401C366.617 315.313 366.651 315.223 366.687 315.13C368.049 317.199 369.51 318.19 370.995 318.439C372.513 318.693 374.038 318.165 375.473 317.246C376.905 316.327 378.253 315.014 379.419 313.687C380.585 312.36 381.575 311.016 382.296 310.035L382.369 309.932C382.694 309.488 382.96 309.127 383.156 308.884C383.259 308.753 383.342 308.66 383.402 308.607C383.415 308.597 383.425 308.589 383.432 308.583L383.438 308.579V308.592C383.438 308.624 383.432 308.67 383.418 308.732C383.395 308.855 383.345 309.032 383.269 309.268C383.119 309.74 382.864 310.444 382.495 311.429C382.063 312.586 381.472 314.127 380.705 316.13C380.167 317.536 379.539 319.169 378.821 321.055C377.974 323.276 377.061 325.685 376.087 328.254C369.042 346.859 358.801 373.905 346.963 399.206C340.226 413.606 332.975 427.437 325.498 438.827C318.024 450.221 310.331 459.163 302.718 463.787C272.218 482.318 237.22 488.284 203.432 480.711C169.644 473.134 139.057 452.47 116.666 422.076C94.2709 391.686 81.396 353.367 80.1371 313.372C78.8781 273.376 89.3149 234.067 109.737 201.857C130.159 169.647 159.363 146.438 192.583 136.014C225.784 125.596 261.04 128.56 292.606 144.425L266.382 194.042C255.639 188.644 246.01 185.957 236.24 185.505C226.451 185.052 216.526 186.844 205.202 190.397C182.545 197.506 162.632 213.334 148.707 235.296C134.782 257.258 127.671 284.057 128.528 311.321C129.385 338.585 138.161 364.707 153.427 385.424C168.694 406.142 189.547 420.236 212.587 425.401C235.626 430.566 259.496 426.497 280.293 413.858C285.498 410.696 292.673 403.843 300.652 394.961C308.63 386.075 317.42 375.154 325.857 363.85C334.294 352.546 342.379 340.857 348.949 330.434ZM366.584 314.968C366.587 314.976 366.594 314.984 366.597 314.992C366.551 315.117 366.504 315.237 366.458 315.352C366.212 315.939 365.953 316.396 365.681 316.689C365.408 316.981 365.129 317.104 364.847 317.046C364.558 316.986 364.242 316.735 363.907 316.227C363.239 315.214 362.522 313.228 361.784 309.939L362.89 304.904C363.963 309.595 365.222 312.832 366.584 314.968Z" fill="#F11A1A" stroke="#E80D0D" stroke-width="0.13697"/>
<path d="M268.423 279.273L269.207 281.589L271.024 284.414L272.316 285.697L275.166 289.033L277.505 293.403L277.255 295.207L275.475 300.111L238.71 374.479L236.408 377.837L234.864 378.358L231.765 376.827L231.243 375.286L232.512 371.413L236.086 364.185L254.718 325.197L257.784 318.999L257.262 317.456L254.163 315.924L251.848 316.707L250.566 318.001L225.284 367.839L224.261 369.905L222.979 371.2L221.438 371.722L218.338 370.19L217.817 368.646L218.574 365.809L219.597 363.743L223.172 356.512L243.846 313.394L244.354 312.361L243.833 310.818L240.733 309.286L238.418 310.07L237.136 311.363L236.116 313.429L210.835 363.268L209.553 364.563L208.782 364.823L208.008 365.085L204.909 363.554L204.65 362.78L204.886 361.062L204.899 360.976L205.41 359.943L204.886 361.062L228.373 310.888L230.416 306.757L230.928 305.723L230.406 304.18L227.307 302.648L224.992 303.432L218.604 315.055L196.634 356.89L195.352 358.186L194.582 358.445L193.549 357.937L191.482 356.914L190.961 355.372L191.21 353.565L191.718 352.532L193.253 349.433L195.296 345.304L222.866 289.529L225.932 283.331L227.971 279.199L228.994 277.134L230.014 275.068L231.808 272.741L233.09 271.447L233.861 271.186L236.176 270.402L240.557 270.64L244.168 271.139L246.746 271.127L249.061 270.344L251.376 269.56L253.429 268.005L254.449 265.939L263.889 245.542L264.912 243.476L268.224 235.474L268.735 234.441L285.261 242.611L271.213 269.728L269.17 273.859L268.662 274.892L268.413 276.697L268.423 279.273Z" fill="#F11A1A"/>
<path d="M404.706 332.821C397.179 345.484 386.842 354.795 376.262 359.638C365.679 364.484 354.977 364.823 346.526 359.8C338.076 354.778 333.256 345.218 332.449 333.605C331.648 321.998 334.88 308.467 342.404 295.803C349.928 283.139 360.265 273.831 370.845 268.987C381.427 264.141 392.13 263.803 400.58 268.824C409.031 273.846 413.854 283.407 414.658 295.02C415.462 306.626 412.23 320.157 404.706 332.821Z" fill="#F11A1A" stroke="#E80D0D" stroke-width="2.42572"/>
<path d="M335.304 339.163L338.915 337.379L343.96 340.933L353.939 341.535L370.189 350.271L365.771 361.272L367.232 363.664L360.28 365.198L357.988 365.813L357.224 366.019L354.935 366.63L354.171 366.836L352.849 368.009L333.494 402.651L317.965 390.447L337.158 358.303L337.104 355.044L336.693 353.519L336.284 351.991L336.081 351.227L333.68 345.325L334.444 345.122L335.357 342.422L335.304 339.163Z" fill="#F11A1A"/>
<path d="M333.68 345.325L334.444 345.122L335.357 342.422L335.304 339.163L338.915 337.379L343.96 340.933L353.939 341.535L370.189 350.271L365.771 361.272L367.232 363.664L360.28 365.198L357.988 365.813L357.224 366.019L354.935 366.63L354.171 366.836L352.849 368.009L333.494 402.651L317.965 390.447L337.158 358.303L337.104 355.044M333.68 345.325L334.7 346.69M333.68 345.325L336.081 351.227L336.284 351.991L336.693 353.519L337.104 355.044M337.104 355.044L337.307 355.808" stroke="#E80D0D" stroke-width="0.485145"/>
<path d="M245.774 297.353C242.622 300.274 239.154 302.045 236.105 302.549C233.052 303.053 230.421 302.289 228.923 300.153C227.425 298.017 227.276 294.82 228.295 291.419C229.315 288.019 231.498 284.422 234.653 281.501C237.805 278.581 241.33 276.891 244.436 276.468C247.548 276.045 250.235 276.89 251.733 279.026C253.231 281.162 253.324 284.276 252.248 287.596C251.172 290.915 248.93 294.431 245.774 297.353Z" fill="white" stroke="#E80D0D" stroke-width="0.120081"/>
<path d="M259.824 291.558L250.959 275.908L225.73 295.504L234.596 311.153L259.824 291.558Z" fill="#F11A1A" stroke="#E80D0D" stroke-width="0.120044"/>
<path d="M406.063 306.067C410.939 311.599 398.536 331.306 387.169 344.85C375.802 358.392 365.977 360.359 361.104 354.825C356.231 349.294 361.522 334.618 372.889 321.075C384.256 307.532 401.19 300.535 406.063 306.067Z" fill="white"/>
<path d="M394.677 286.924L343.145 328.78L359.431 355.894L410.96 314.04L394.677 286.924Z" fill="#F11A1A"/>
</g>
</svg>
