<svg width="501" height="149" viewBox="0 0 501 149" fill="none" xmlns="http://www.w3.org/2000/svg">
<path d="M37.8811 143.237C35.282 143.237 32.6829 143.237 30.0838 143.237C27.4847 143.237 24.8856 143.237 22.2865 143.237C21.9152 143.237 21.544 143.175 21.1727 143.051C20.9251 142.804 20.6776 142.556 20.4301 142.309C20.3063 141.937 20.2444 141.566 20.2444 141.195C20.2444 131.046 20.2444 120.959 20.2444 110.934C20.2444 100.909 20.2444 90.9456 20.2444 81.0444C20.2444 71.0193 20.2444 61.0561 20.2444 51.1548C20.2444 41.1298 20.2444 31.1047 20.2444 21.0797H39.5519L37.8811 24.607C37.8811 27.4536 37.8811 30.3621 37.8811 33.3325C37.8811 36.3029 37.8811 39.2114 37.8811 42.058C37.8811 51.7118 37.8811 61.3655 37.8811 71.0193C37.8811 80.6731 37.8811 90.0793 37.8811 99.238C37.8811 108.273 37.8811 116.875 37.8811 125.043C37.8811 128.014 37.8811 131.046 37.8811 134.14C37.8811 137.111 37.8811 140.143 37.8811 143.237ZM9.10547 13.2824H89.8628C90.3579 13.2824 90.7292 13.4062 90.9767 13.6537C91.2242 13.7775 91.4099 14.025 91.5337 14.3963C91.7812 14.6439 91.905 14.9533 91.905 15.3246C91.905 16.9335 91.905 18.4806 91.905 19.9658C91.905 21.3272 91.905 22.7505 91.905 24.2357C91.905 25.5971 91.905 27.1442 91.905 28.8769H11.1476C10.7763 28.8769 10.405 28.8151 10.0337 28.6913C9.78618 28.4438 9.53865 28.1962 9.29112 27.9487C9.16735 27.5774 9.10547 27.2061 9.10547 26.8348C9.10547 24.2357 9.10547 21.9461 9.10547 19.9658C9.10547 17.9855 9.10547 15.7578 9.10547 13.2824ZM29.3412 74.1753H82.0656C82.6844 74.1753 83.1795 74.361 83.5508 74.7323C83.922 75.1036 84.1077 75.5986 84.1077 76.2175C84.1077 77.8264 84.1077 79.3735 84.1077 80.8587C84.1077 82.3439 84.1077 83.8291 84.1077 85.3143C84.1077 86.6757 84.1077 88.099 84.1077 89.5842H29.3412V74.1753ZM291.854 42.4293C296.31 42.4293 300.27 43.11 303.736 44.4715C307.201 45.7091 310.357 47.5656 313.204 50.0409C316.174 52.5163 318.773 55.5485 321.001 59.1378H326.57V79.3735C322.115 72.1951 317.35 66.9969 312.275 63.779C307.201 60.4373 301.879 58.7665 296.31 58.7665C292.225 58.7665 288.636 59.6947 285.542 61.5512C282.572 63.2839 280.22 65.9449 278.487 69.5341C276.878 72.9996 276.074 77.3314 276.074 82.5295V106.107C276.074 110.068 276.569 113.533 277.559 116.504C278.673 119.35 280.096 121.702 281.829 123.558C283.562 125.291 285.666 126.59 288.141 127.457C290.616 128.323 293.339 128.756 296.31 128.756C299.899 128.756 303.426 128.138 306.892 126.9C310.357 125.538 313.761 123.373 317.102 120.402C320.444 117.432 323.6 113.533 326.57 108.706V128.199H321.001C318.773 131.789 316.174 134.821 313.204 137.296C310.233 139.772 306.891 141.69 303.178 143.051C299.588 144.413 295.691 145.093 291.483 145.093C286.78 145.093 282.386 144.289 278.302 142.68C274.341 140.947 270.938 138.534 268.091 135.44C265.244 132.346 263.016 128.571 261.408 124.115C259.922 119.66 259.18 114.585 259.18 108.892V79.7448C259.18 73.9278 259.922 68.7296 261.408 64.1503C263.016 59.5709 265.244 55.6723 268.091 52.4544C271.061 49.2365 274.527 46.7611 278.487 45.0284C282.572 43.2957 287.027 42.4293 291.854 42.4293ZM338.823 4C339.318 4 339.69 4.12377 339.937 4.3713C340.185 4.49507 340.369 4.68071 340.493 4.92824C340.741 5.17578 340.865 5.54708 340.865 6.04215C340.865 15.5721 340.865 25.2877 340.865 35.189C340.865 45.0903 340.865 54.9297 340.865 64.7072C340.865 74.4848 340.865 84.1385 340.865 93.6685C340.865 103.075 340.865 112.172 340.865 120.959C340.865 125.167 340.865 129.19 340.865 133.026C340.865 136.739 340.865 140.143 340.865 143.237C339.628 143.237 338.328 143.237 336.967 143.237C335.729 143.237 334.491 143.237 333.254 143.237C332.016 143.237 330.777 143.237 329.54 143.237C328.302 143.237 327.065 143.237 325.828 143.237C325.456 143.237 325.085 143.175 324.714 143.051C324.466 142.804 324.219 142.556 323.971 142.309C323.848 142.061 323.786 141.69 323.786 141.195C323.786 131.294 323.786 121.392 323.786 111.491C323.786 101.59 323.786 91.7501 323.786 81.9726C323.786 72.0713 323.786 62.17 323.786 52.2687C323.786 42.3675 323.786 32.4662 323.786 22.5649C323.786 19.5945 323.786 16.5622 323.786 13.4681C323.786 10.374 323.786 7.21792 323.786 4C325.023 4 326.261 4 327.499 4C328.736 4 329.974 4 331.212 4C332.449 4 333.686 4 334.924 4C336.285 4 337.586 4 338.823 4ZM356.387 79.3735H409.669C410.164 79.3735 410.535 79.4973 410.783 79.7448C411.03 79.8686 411.216 80.0542 411.339 80.3018C411.587 80.5493 411.711 80.9206 411.711 81.4157C411.711 83.891 411.711 86.3044 411.711 88.656C411.711 90.8838 411.711 93.2972 411.711 95.8963H358.428C358.057 95.8963 357.749 95.8963 357.501 95.8963C357.254 95.7725 357.006 95.6487 356.759 95.525C356.635 95.2775 356.511 95.0299 356.387 94.7824C356.387 94.5349 356.387 94.2254 356.387 93.8541C356.387 91.2551 356.387 88.8416 356.387 86.6138C356.387 84.2623 356.387 81.8488 356.387 79.3735Z" fill="#E80D0D"/>
<path d="M465.4 131.228H447.02L447.577 126.587C447.577 124.236 447.577 121.76 447.577 119.161C447.577 116.562 447.577 114.087 447.577 111.735C447.577 104.062 447.577 96.3887 447.577 88.7152C447.577 80.918 447.577 73.1826 447.577 65.5091C447.577 57.7118 447.577 49.9146 447.577 42.1173C447.577 34.3201 447.577 26.5228 447.577 18.7255H466.328L465.4 23.3668C465.4 25.347 465.4 27.5129 465.4 29.8645C465.4 32.0923 465.4 34.2582 465.4 36.3622C465.4 44.2832 465.4 52.2043 465.4 60.1253C465.4 68.0463 465.4 75.9673 465.4 83.8884C465.4 91.8094 465.4 99.7304 465.4 107.651C465.4 115.448 465.4 123.307 465.4 131.228ZM488.791 139.954H426.228C425.856 139.954 425.547 139.892 425.299 139.768C425.052 139.645 424.804 139.521 424.557 139.397C424.433 139.15 424.309 138.902 424.186 138.654C424.186 138.407 424.186 138.159 424.186 137.912C424.186 136.303 424.186 134.818 424.186 133.456C424.186 131.971 424.186 130.486 424.186 129.001C424.186 127.516 424.186 125.968 424.186 124.359H486.749C487.121 124.359 487.43 124.483 487.678 124.731C488.049 124.855 488.296 125.102 488.42 125.473C488.668 125.721 488.791 126.03 488.791 126.402C488.791 128.011 488.791 129.558 488.791 131.043C488.791 132.528 488.791 134.013 488.791 135.498C488.791 136.86 488.791 138.345 488.791 139.954ZM424.186 10H486.749C487.368 10 487.863 10.1857 488.234 10.557C488.606 10.9283 488.791 11.4233 488.791 12.0422C488.791 13.2798 488.791 14.4556 488.791 15.5695C488.791 16.6834 488.791 17.7973 488.791 18.9112C488.791 19.9013 488.791 20.9533 488.791 22.0672C488.791 23.1811 488.791 24.3569 488.791 25.5945H426.228C425.609 25.5945 425.114 25.4089 424.742 25.0376C424.371 24.5425 424.186 24.0475 424.186 23.5524C424.186 22.3148 424.186 21.139 424.186 20.0251C424.186 18.9112 424.186 17.8592 424.186 16.869C424.186 15.7551 424.186 14.6413 424.186 13.5274C424.186 12.4135 424.186 11.2377 424.186 10Z" fill="#00A34F"/>
<mask id="mask0_470_126" style="mask-type:luminance" maskUnits="userSpaceOnUse" x="102" y="37" width="140" height="109">
<path d="M241.438 37H102.688V145.079H241.438V37Z" fill="white"/>
</mask>
<g mask="url(#mask0_470_126)">
<path d="M154.566 89.4209C154.609 89.2495 154.656 89.0912 154.706 88.9503C155.116 89.6003 155.496 90.5898 155.819 92.03C155.462 92.9642 155.173 93.5131 154.946 93.7764C154.831 93.9087 154.736 93.9646 154.658 93.9666C154.582 93.9686 154.514 93.9183 154.455 93.8159C154.397 93.7137 154.351 93.5638 154.316 93.3767C154.281 93.1899 154.258 92.9675 154.246 92.7214C154.222 92.2292 154.241 91.6434 154.297 91.0608C154.353 90.4781 154.445 89.8993 154.566 89.4209ZM160.037 84.2514C158.141 87.2591 156.664 89.9172 155.914 91.7868L156.214 90.4235L156.216 90.4238L156.214 90.4141C155.991 89.4208 155.774 88.8151 155.568 88.5034C155.465 88.3477 155.363 88.2618 155.261 88.2409C155.158 88.2196 155.06 88.2666 154.972 88.3611C154.885 88.4553 154.803 88.5987 154.729 88.7773C154.718 88.8038 154.708 88.831 154.697 88.859C154.287 88.2359 153.847 87.9375 153.4 87.8627C152.943 87.786 152.484 87.9451 152.052 88.2218C151.621 88.4984 151.215 88.8938 150.864 89.2933C150.513 89.6928 150.215 90.0973 149.999 90.3927L149.976 90.4241C149.878 90.5576 149.798 90.6662 149.74 90.7392C149.708 90.7787 149.683 90.8067 149.665 90.8225C149.661 90.8254 149.658 90.8278 149.656 90.8296L149.654 90.8309V90.827C149.654 90.8173 149.656 90.8035 149.66 90.7849C149.668 90.7478 149.682 90.6948 149.705 90.6236C149.751 90.4814 149.827 90.2694 149.938 89.973C150.068 89.6247 150.246 89.1605 150.477 88.5572C150.639 88.1342 150.828 87.6428 151.044 87.075C151.299 86.4065 151.574 85.6814 151.867 84.9079C153.988 79.3068 157.071 71.1648 160.635 63.5474C162.663 59.2128 164.846 55.0486 167.097 51.6196C169.347 48.19 171.663 45.4982 173.955 44.1054C183.137 38.5267 193.673 36.7309 203.845 39.0111C214.017 41.2913 223.225 47.5132 229.967 56.6623C236.708 65.8115 240.584 77.3474 240.963 89.3881C241.342 101.429 238.201 113.263 232.052 122.96C225.904 132.657 217.113 139.644 207.111 142.782C197.116 145.918 186.502 145.026 176.999 140.25L184.894 125.313C188.128 126.938 191.027 127.747 193.968 127.883C196.915 128.019 199.903 127.48 203.312 126.41C210.133 124.27 216.128 119.505 220.32 112.893C224.512 106.282 226.653 98.2133 226.395 90.0054C226.137 81.7975 223.495 73.9335 218.899 67.6965C214.303 61.4594 208.025 57.217 201.089 55.6621C194.153 54.1072 186.967 55.3318 180.706 59.1362C179.139 60.0885 176.979 62.1517 174.577 64.8258C172.175 67.5005 169.529 70.7883 166.989 74.1915C164.449 77.5948 162.015 81.1139 160.037 84.2514ZM154.728 88.9076C154.727 88.9052 154.725 88.9028 154.724 88.9004C154.738 88.8628 154.752 88.8265 154.766 88.7918C154.84 88.6152 154.918 88.4776 155 88.3893C155.082 88.3015 155.166 88.2646 155.251 88.2821C155.338 88.3001 155.433 88.3758 155.534 88.5286C155.736 88.8335 155.951 89.4313 156.173 90.4214L155.84 91.9372C155.518 90.5252 155.138 89.5505 154.728 88.9076Z" fill="#F11A1A" stroke="#E80D0D" stroke-width="0.041235"/>
<path d="M189.916 92.6587C189.873 92.8301 189.826 92.9885 189.776 93.1293C189.366 92.4793 188.986 91.4898 188.664 90.0496C189.02 89.1154 189.309 88.5665 189.536 88.3032C189.651 88.171 189.746 88.115 189.824 88.113C189.9 88.1111 189.968 88.1614 190.027 88.2638C190.085 88.3659 190.132 88.5159 190.166 88.7029C190.201 88.8897 190.224 89.1121 190.236 89.3582C190.26 89.8504 190.241 90.4362 190.185 91.0189C190.129 91.6015 190.037 92.1803 189.916 92.6587ZM184.445 97.8282C186.341 94.8206 187.818 92.1625 188.568 90.2929L188.268 91.6562L188.266 91.6558L188.268 91.6656C188.491 92.6589 188.708 93.2645 188.914 93.5763C189.017 93.7319 189.119 93.8178 189.221 93.8387C189.324 93.86 189.422 93.813 189.51 93.7185C189.598 93.6244 189.679 93.481 189.753 93.3023C189.764 93.2759 189.774 93.2487 189.785 93.2207C190.195 93.8437 190.635 94.1421 191.082 94.2169C191.539 94.2936 191.998 94.1346 192.43 93.8579C192.861 93.5812 193.267 93.1858 193.618 92.7863C193.969 92.3868 194.267 91.9823 194.484 91.687L194.506 91.6559C194.604 91.5223 194.684 91.4135 194.743 91.3404C194.774 91.3009 194.799 91.273 194.817 91.2572C194.821 91.2542 194.824 91.2518 194.826 91.25L194.828 91.2487V91.2526C194.828 91.2623 194.826 91.2762 194.822 91.2948C194.815 91.3318 194.8 91.3849 194.777 91.4561C194.732 91.5982 194.655 91.8102 194.544 92.1066C194.414 92.4549 194.236 92.9189 194.005 93.522C193.843 93.9451 193.654 94.4367 193.438 95.0046C193.183 95.6732 192.908 96.3983 192.615 97.1719C190.494 102.773 187.411 110.915 183.847 118.532C181.819 122.867 179.636 127.031 177.385 130.46C175.135 133.89 172.819 136.582 170.527 137.974C161.345 143.553 150.809 145.349 140.637 143.069C130.465 140.788 121.257 134.567 114.516 125.417C107.774 116.268 103.898 104.732 103.519 92.6915C103.14 80.6509 106.282 68.8168 112.43 59.12C118.578 49.4232 127.37 42.436 137.371 39.2978C147.366 36.1614 157.98 37.054 167.483 41.8301L159.588 56.7672C156.354 55.1423 153.455 54.3331 150.514 54.1971C147.567 54.0609 144.579 54.6003 141.17 55.67C134.349 57.8102 128.354 62.5752 124.162 69.1868C119.97 75.7984 117.829 83.8663 118.087 92.0742C118.345 100.282 120.987 108.146 125.583 114.383C130.179 120.62 136.457 124.863 143.393 126.418C150.329 127.973 157.515 126.748 163.776 122.943C165.343 121.991 167.503 119.928 169.905 117.254C172.307 114.579 174.953 111.291 177.493 107.888C180.033 104.485 182.467 100.966 184.445 97.8282ZM189.754 93.172C189.755 93.1744 189.757 93.1768 189.758 93.1793C189.744 93.2168 189.73 93.2531 189.716 93.2878C189.642 93.4645 189.564 93.602 189.482 93.6903C189.4 93.7782 189.316 93.815 189.231 93.7975C189.144 93.7796 189.049 93.7039 188.948 93.551C188.747 93.2462 188.531 92.6483 188.309 91.6582L188.642 90.1424C188.965 91.5545 189.344 92.5291 189.754 93.172Z" fill="#F11A1A" stroke="#E80D0D" stroke-width="0.041235"/>
<path d="M160.203 82.4264L160.439 83.1234L160.986 83.9741L161.375 84.3602L162.233 85.3646L162.937 86.68L162.862 87.2233L162.326 88.6995L151.258 111.088L150.565 112.099L150.1 112.256L149.167 111.795L149.01 111.331L149.392 110.165L150.468 107.989L156.077 96.2516L157 94.3859L156.843 93.9212L155.91 93.46L155.213 93.6959L154.827 94.0855L147.216 109.089L146.908 109.711L146.522 110.101L146.058 110.258L145.125 109.797L144.968 109.332L145.196 108.478L145.504 107.856L146.58 105.679L152.804 92.6985L152.957 92.3875L152.8 91.9229L151.867 91.4617L151.17 91.6976L150.784 92.0871L150.477 92.7091L142.866 107.713L142.48 108.103L142.248 108.181L142.015 108.26L141.082 107.799L141.004 107.566L141.075 107.049L141.079 107.023L141.233 106.712L141.075 107.049L148.146 91.944L148.761 90.7002L148.915 90.3892L148.758 89.9245L147.825 89.4634L147.128 89.6992L145.205 93.1984L138.591 105.793L138.205 106.183L137.973 106.261L137.662 106.108L137.04 105.8L136.883 105.336L136.958 104.792L137.111 104.481L137.573 103.548L138.188 102.305L146.488 85.5137L147.411 83.6479L148.025 82.4041L148.333 81.7822L148.64 81.1603L149.18 80.4597L149.566 80.0702L149.798 79.9916L150.495 79.7557L151.814 79.8273L152.901 79.9775L153.677 79.974L154.374 79.7381L155.071 79.5022L155.689 79.034L155.996 78.4121L158.838 72.2716L159.146 71.6497L160.143 69.2407L160.297 68.9297L165.272 71.3892L161.043 79.5527L160.428 80.7965L160.275 81.1075L160.2 81.6508L160.203 82.4264Z" fill="#F11A1A"/>
<path d="M201.23 98.5468C198.964 102.359 195.852 105.162 192.667 106.62C189.481 108.079 186.259 108.181 183.715 106.669C181.171 105.157 179.72 102.279 179.477 98.7828C179.236 95.2887 180.209 91.2152 182.474 87.4027C184.739 83.5902 187.851 80.7879 191.036 79.3297C194.222 77.8707 197.444 77.769 199.988 79.2806C202.532 80.7923 203.984 83.6708 204.226 87.1667C204.468 90.6608 203.495 94.7343 201.23 98.5468Z" fill="#F11A1A" stroke="#E80D0D" stroke-width="0.730263"/>
<path d="M180.337 100.456L181.424 99.9189L182.943 100.989L185.947 101.17L190.839 103.8L189.509 107.112L189.949 107.832L187.856 108.294L187.166 108.479L186.936 108.541L186.247 108.725L186.017 108.787L185.619 109.14L179.792 119.569L175.117 115.895L180.895 106.218L180.879 105.237L180.755 104.778L180.632 104.318L180.571 104.088L179.848 102.311L180.078 102.25L180.353 101.437L180.337 100.456Z" fill="#F11A1A"/>
<path d="M179.848 102.311L180.078 102.25L180.353 101.437L180.337 100.456L181.424 99.9189L182.943 100.989L185.947 101.17L190.839 103.8L189.509 107.112L189.949 107.832L187.856 108.294L187.166 108.479L186.936 108.541L186.247 108.725L186.017 108.787L185.619 109.14L179.792 119.569L175.117 115.895L180.895 106.218L180.879 105.237M179.848 102.311L180.155 102.722M179.848 102.311L180.571 104.088L180.632 104.318L180.755 104.778L180.879 105.237M180.879 105.237L180.94 105.467" stroke="#E80D0D" stroke-width="0.146053"/>
<path d="M153.384 87.8689C152.435 88.7485 151.391 89.2816 150.473 89.4333C149.554 89.585 148.762 89.3549 148.311 88.712C147.86 88.069 147.815 87.1066 148.122 86.0826C148.429 85.0589 149.086 83.9763 150.036 83.0969C150.985 82.2176 152.046 81.7089 152.981 81.5816C153.918 81.4543 154.727 81.7087 155.178 82.3517C155.629 82.9946 155.657 83.9323 155.333 84.9317C155.009 85.931 154.334 86.9893 153.384 87.8689Z" fill="white" stroke="#E80D0D" stroke-width="0.0361503"/>
<path d="M157.614 86.1244L154.945 81.4131L147.35 87.3124L150.019 92.0237L157.614 86.1244Z" fill="#F11A1A" stroke="#E80D0D" stroke-width="0.0361393"/>
<path d="M201.639 90.4925C203.107 92.1579 199.373 98.0908 195.951 102.168C192.529 106.245 189.571 106.837 188.104 105.171C186.637 103.506 188.23 99.0877 191.652 95.0106C195.074 90.9336 200.172 88.8271 201.639 90.4925Z" fill="white"/>
<path d="M198.211 84.7295L182.697 97.3304L187.6 105.493L203.113 92.8927L198.211 84.7295Z" fill="#F11A1A"/>
</g>
</svg>
