<svg width="501" height="149" viewBox="0 0 501 149" fill="none" xmlns="http://www.w3.org/2000/svg">
<path d="M37.8816 143.237C35.2825 143.237 32.6834 143.237 30.0843 143.237C27.4852 143.237 24.8861 143.237 22.287 143.237C21.9157 143.237 21.5445 143.175 21.1732 143.051C20.9256 142.804 20.6781 142.556 20.4306 142.309C20.3068 141.937 20.2449 141.566 20.2449 141.195C20.2449 131.046 20.2449 120.959 20.2449 110.934C20.2449 100.909 20.2449 90.9456 20.2449 81.0444C20.2449 71.0193 20.2449 61.0561 20.2449 51.1548C20.2449 41.1298 20.2449 31.1047 20.2449 21.0797H39.5524L37.8816 24.607C37.8816 27.4536 37.8816 30.3621 37.8816 33.3325C37.8816 36.3029 37.8816 39.2114 37.8816 42.058C37.8816 51.7118 37.8816 61.3655 37.8816 71.0193C37.8816 80.6731 37.8816 90.0793 37.8816 99.238C37.8816 108.273 37.8816 116.875 37.8816 125.043C37.8816 128.014 37.8816 131.046 37.8816 134.14C37.8816 137.111 37.8816 140.143 37.8816 143.237ZM9.10596 13.2824H89.8633C90.3584 13.2824 90.7297 13.4062 90.9772 13.6537C91.2247 13.7775 91.4104 14.025 91.5342 14.3963C91.7817 14.6439 91.9055 14.9533 91.9055 15.3246C91.9055 16.9335 91.9055 18.4806 91.9055 19.9658C91.9055 21.3272 91.9055 22.7505 91.9055 24.2357C91.9055 25.5971 91.9055 27.1442 91.9055 28.8769H11.1481C10.7768 28.8769 10.4055 28.8151 10.0342 28.6913C9.78667 28.4438 9.53914 28.1962 9.29161 27.9487C9.16784 27.5774 9.10596 27.2061 9.10596 26.8348C9.10596 24.2357 9.10596 21.9461 9.10596 19.9658C9.10596 17.9855 9.10596 15.7578 9.10596 13.2824ZM29.3417 74.1753H82.0661C82.6849 74.1753 83.18 74.361 83.5513 74.7323C83.9225 75.1036 84.1082 75.5986 84.1082 76.2175C84.1082 77.8264 84.1082 79.3735 84.1082 80.8587C84.1082 82.3439 84.1082 83.8291 84.1082 85.3143C84.1082 86.6757 84.1082 88.099 84.1082 89.5842H29.3417V74.1753ZM291.854 42.4293C296.31 42.4293 300.27 43.11 303.736 44.4715C307.201 45.7091 310.357 47.5656 313.204 50.0409C316.174 52.5163 318.773 55.5485 321.001 59.1378H326.57V79.3735C322.115 72.1951 317.35 66.9969 312.275 63.779C307.201 60.4373 301.879 58.7665 296.31 58.7665C292.225 58.7665 288.636 59.6947 285.542 61.5512C282.572 63.2839 280.22 65.9449 278.487 69.5341C276.878 72.9996 276.074 77.3314 276.074 82.5295V106.107C276.074 110.068 276.569 113.533 277.559 116.504C278.673 119.35 280.096 121.702 281.829 123.558C283.562 125.291 285.666 126.59 288.141 127.457C290.616 128.323 293.339 128.756 296.31 128.756C299.899 128.756 303.426 128.138 306.892 126.9C310.357 125.538 313.761 123.373 317.102 120.402C320.444 117.432 323.6 113.533 326.57 108.706V128.199H321.001C318.773 131.789 316.174 134.821 313.204 137.296C310.233 139.772 306.892 141.69 303.179 143.051C299.589 144.413 295.691 145.093 291.483 145.093C286.78 145.093 282.386 144.289 278.302 142.68C274.341 140.947 270.938 138.534 268.091 135.44C265.244 132.346 263.016 128.571 261.408 124.115C259.922 119.66 259.18 114.585 259.18 108.892V79.7448C259.18 73.9278 259.922 68.7296 261.408 64.1503C263.016 59.5709 265.244 55.6723 268.091 52.4544C271.061 49.2365 274.527 46.7611 278.487 45.0284C282.572 43.2957 287.027 42.4293 291.854 42.4293ZM338.823 4C339.318 4 339.69 4.12377 339.937 4.3713C340.185 4.49507 340.37 4.68071 340.494 4.92824C340.742 5.17578 340.865 5.54708 340.865 6.04215C340.865 15.5721 340.865 25.2877 340.865 35.189C340.865 45.0903 340.865 54.9297 340.865 64.7072C340.865 74.4848 340.865 84.1385 340.865 93.6685C340.865 103.075 340.865 112.172 340.865 120.959C340.865 125.167 340.865 129.19 340.865 133.026C340.865 136.739 340.865 140.143 340.865 143.237C339.628 143.237 338.328 143.237 336.967 143.237C335.729 143.237 334.491 143.237 333.254 143.237C332.016 143.237 330.778 143.237 329.541 143.237C328.303 143.237 327.065 143.237 325.828 143.237C325.456 143.237 325.085 143.175 324.714 143.051C324.466 142.804 324.219 142.556 323.971 142.309C323.848 142.061 323.786 141.69 323.786 141.195C323.786 131.294 323.786 121.392 323.786 111.491C323.786 101.59 323.786 91.7501 323.786 81.9726C323.786 72.0713 323.786 62.17 323.786 52.2687C323.786 42.3675 323.786 32.4662 323.786 22.5649C323.786 19.5945 323.786 16.5622 323.786 13.4681C323.786 10.374 323.786 7.21792 323.786 4C325.023 4 326.261 4 327.499 4C328.736 4 329.974 4 331.212 4C332.449 4 333.687 4 334.925 4C336.286 4 337.586 4 338.823 4ZM356.387 79.3735H409.669C410.164 79.3735 410.535 79.4973 410.783 79.7448C411.03 79.8686 411.216 80.0542 411.339 80.3018C411.587 80.5493 411.711 80.9206 411.711 81.4157C411.711 83.891 411.711 86.3044 411.711 88.656C411.711 90.8838 411.711 93.2972 411.711 95.8963H358.429C358.058 95.8963 357.749 95.8963 357.501 95.8963C357.254 95.7725 357.006 95.6487 356.759 95.525C356.635 95.2775 356.511 95.0299 356.387 94.7824C356.387 94.5349 356.387 94.2254 356.387 93.8541C356.387 91.2551 356.387 88.8416 356.387 86.6138C356.387 84.2623 356.387 81.8488 356.387 79.3735Z" fill="#E80D0D"/>
<path d="M465.4 131.228H447.02L447.577 126.587C447.577 124.236 447.577 121.76 447.577 119.161C447.577 116.562 447.577 114.087 447.577 111.735C447.577 104.062 447.577 96.3887 447.577 88.7152C447.577 80.918 447.577 73.1826 447.577 65.5091C447.577 57.7118 447.577 49.9146 447.577 42.1173C447.577 34.3201 447.577 26.5228 447.577 18.7255H466.328L465.4 23.3668C465.4 25.347 465.4 27.5129 465.4 29.8645C465.4 32.0923 465.4 34.2582 465.4 36.3622C465.4 44.2832 465.4 52.2043 465.4 60.1253C465.4 68.0463 465.4 75.9673 465.4 83.8884C465.4 91.8094 465.4 99.7304 465.4 107.651C465.4 115.448 465.4 123.307 465.4 131.228ZM488.791 139.954H426.228C425.856 139.954 425.547 139.892 425.299 139.768C425.052 139.645 424.804 139.521 424.557 139.397C424.433 139.15 424.309 138.902 424.186 138.654C424.186 138.407 424.186 138.159 424.186 137.912C424.186 136.303 424.186 134.818 424.186 133.456C424.186 131.971 424.186 130.486 424.186 129.001C424.186 127.516 424.186 125.968 424.186 124.359H486.749C487.121 124.359 487.43 124.483 487.678 124.731C488.049 124.855 488.296 125.102 488.42 125.473C488.668 125.721 488.791 126.03 488.791 126.402C488.791 128.011 488.791 129.558 488.791 131.043C488.791 132.528 488.791 134.013 488.791 135.498C488.791 136.86 488.791 138.345 488.791 139.954ZM424.186 10H486.749C487.368 10 487.863 10.1857 488.234 10.557C488.606 10.9283 488.791 11.4233 488.791 12.0422C488.791 13.2798 488.791 14.4556 488.791 15.5695C488.791 16.6834 488.791 17.7973 488.791 18.9112C488.791 19.9013 488.791 20.9533 488.791 22.0672C488.791 23.1811 488.791 24.3569 488.791 25.5945H426.228C425.609 25.5945 425.114 25.4089 424.742 25.0376C424.371 24.5425 424.186 24.0475 424.186 23.5524C424.186 22.3148 424.186 21.139 424.186 20.0251C424.186 18.9112 424.186 17.8592 424.186 16.869C424.186 15.7551 424.186 14.6413 424.186 13.5274C424.186 12.4135 424.186 11.2377 424.186 10Z" fill="#009537"/>
<mask id="mask0_217_126" style="mask-type:luminance" maskUnits="userSpaceOnUse" x="102" y="37" width="140" height="109">
<path d="M241.438 37H102.688V145.079H241.438V37Z" fill="white"/>
</mask>
<g mask="url(#mask0_217_126)">
<path d="M154.566 89.4213C154.609 89.2499 154.656 89.0916 154.706 88.9507C155.116 89.6007 155.496 90.5902 155.819 92.0304C155.462 92.9646 155.173 93.5135 154.946 93.7768C154.831 93.9091 154.736 93.965 154.658 93.967C154.582 93.969 154.514 93.9187 154.455 93.8163C154.397 93.7141 154.351 93.5642 154.316 93.3771C154.281 93.1903 154.258 92.9679 154.246 92.7218C154.222 92.2296 154.241 91.6438 154.297 91.0612C154.353 90.4785 154.445 89.8997 154.566 89.4213ZM160.037 84.2518C158.141 87.2595 156.664 89.9176 155.914 91.7872L156.214 90.4239L156.216 90.4242L156.214 90.4145C155.991 89.4212 155.774 88.8155 155.568 88.5038C155.465 88.3481 155.363 88.2622 155.261 88.2413C155.158 88.22 155.06 88.267 154.972 88.3615C154.885 88.4557 154.803 88.5991 154.729 88.7777C154.718 88.8042 154.708 88.8314 154.697 88.8594C154.287 88.2363 153.847 87.9379 153.4 87.8631C152.943 87.7864 152.484 87.9455 152.052 88.2222C151.621 88.4988 151.215 88.8942 150.864 89.2937C150.513 89.6932 150.215 90.0977 149.999 90.3931L149.976 90.4245C149.878 90.558 149.798 90.6666 149.74 90.7396C149.708 90.7791 149.683 90.8071 149.665 90.8229C149.661 90.8258 149.658 90.8282 149.656 90.83L149.654 90.8313V90.8274C149.654 90.8177 149.656 90.8039 149.66 90.7853C149.668 90.7482 149.682 90.6952 149.705 90.624C149.751 90.4818 149.827 90.2698 149.938 89.9734C150.068 89.6251 150.246 89.1609 150.477 88.5576C150.639 88.1346 150.828 87.6432 151.044 87.0754C151.299 86.4069 151.574 85.6818 151.867 84.9083C153.988 79.3072 157.071 71.1652 160.635 63.5478C162.663 59.2132 164.846 55.049 167.097 51.62C169.347 48.1904 171.663 45.4986 173.955 44.1058C183.137 38.5271 193.673 36.7313 203.845 39.0115C214.017 41.2917 223.225 47.5136 229.967 56.6627C236.708 65.8119 240.584 77.3478 240.963 89.3885C241.342 101.429 238.201 113.263 232.052 122.96C225.904 132.657 217.113 139.644 207.111 142.782C197.116 145.918 186.502 145.026 176.999 140.25L184.894 125.313C188.128 126.938 191.027 127.747 193.968 127.883C196.915 128.019 199.903 127.48 203.312 126.41C210.133 124.27 216.128 119.505 220.32 112.893C224.512 106.282 226.653 98.2137 226.395 90.0058C226.137 81.7979 223.495 73.9339 218.899 67.6969C214.303 61.4598 208.025 57.2174 201.089 55.6625C194.153 54.1076 186.967 55.3322 180.706 59.1366C179.139 60.0889 176.979 62.1521 174.577 64.8262C172.175 67.5009 169.529 70.7887 166.989 74.1919C164.449 77.5952 162.015 81.1143 160.037 84.2518ZM154.728 88.908C154.727 88.9056 154.725 88.9032 154.724 88.9008C154.738 88.8632 154.752 88.8269 154.766 88.7922C154.84 88.6156 154.918 88.478 155 88.3897C155.082 88.3019 155.166 88.265 155.251 88.2825C155.338 88.3005 155.433 88.3762 155.534 88.529C155.736 88.8339 155.951 89.4317 156.173 90.4218L155.84 91.9376C155.518 90.5256 155.138 89.5509 154.728 88.908Z" fill="#F11A1A" stroke="#E80D0D" stroke-width="0.041235"/>
<path d="M189.916 92.6587C189.873 92.8301 189.826 92.9885 189.776 93.1293C189.366 92.4793 188.986 91.4898 188.664 90.0496C189.02 89.1154 189.309 88.5665 189.536 88.3032C189.651 88.171 189.746 88.115 189.824 88.113C189.9 88.1111 189.968 88.1614 190.027 88.2638C190.085 88.3659 190.132 88.5159 190.166 88.7029C190.201 88.8897 190.224 89.1121 190.236 89.3582C190.26 89.8504 190.241 90.4362 190.185 91.0189C190.129 91.6015 190.037 92.1803 189.916 92.6587ZM184.445 97.8282C186.341 94.8206 187.818 92.1625 188.568 90.2929L188.268 91.6562L188.266 91.6558L188.268 91.6656C188.491 92.6589 188.708 93.2645 188.914 93.5763C189.017 93.7319 189.119 93.8178 189.221 93.8387C189.324 93.86 189.422 93.813 189.51 93.7185C189.598 93.6244 189.679 93.481 189.753 93.3023C189.764 93.2759 189.774 93.2487 189.785 93.2207C190.195 93.8437 190.635 94.1421 191.082 94.2169C191.539 94.2936 191.998 94.1346 192.43 93.8579C192.861 93.5812 193.267 93.1858 193.618 92.7863C193.969 92.3868 194.267 91.9823 194.484 91.687L194.506 91.6559C194.604 91.5223 194.684 91.4135 194.743 91.3404C194.774 91.3009 194.799 91.273 194.817 91.2572C194.821 91.2542 194.824 91.2518 194.826 91.25L194.828 91.2487V91.2526C194.828 91.2623 194.826 91.2762 194.822 91.2948C194.815 91.3318 194.8 91.3849 194.777 91.4561C194.732 91.5982 194.655 91.8102 194.544 92.1066C194.414 92.4549 194.236 92.9189 194.005 93.522C193.843 93.9451 193.654 94.4367 193.438 95.0046C193.183 95.6732 192.908 96.3983 192.615 97.1719C190.494 102.773 187.411 110.915 183.847 118.532C181.819 122.867 179.636 127.031 177.385 130.46C175.135 133.89 172.819 136.582 170.527 137.974C161.345 143.553 150.809 145.349 140.637 143.069C130.465 140.788 121.257 134.567 114.516 125.417C107.774 116.268 103.898 104.732 103.519 92.6915C103.14 80.6509 106.282 68.8168 112.43 59.12C118.578 49.4232 127.37 42.436 137.371 39.2978C147.366 36.1614 157.98 37.054 167.483 41.8301L159.588 56.7672C156.354 55.1423 153.455 54.3331 150.514 54.1971C147.567 54.0609 144.579 54.6003 141.17 55.67C134.349 57.8102 128.354 62.5752 124.162 69.1868C119.97 75.7984 117.829 83.8663 118.087 92.0742C118.345 100.282 120.987 108.146 125.583 114.383C130.179 120.62 136.457 124.863 143.393 126.418C150.329 127.973 157.515 126.748 163.776 122.943C165.343 121.991 167.503 119.928 169.905 117.254C172.307 114.579 174.953 111.291 177.493 107.888C180.033 104.485 182.467 100.966 184.445 97.8282ZM189.754 93.172C189.755 93.1744 189.757 93.1768 189.758 93.1793C189.744 93.2168 189.73 93.2531 189.716 93.2878C189.642 93.4645 189.564 93.602 189.482 93.6903C189.4 93.7782 189.316 93.815 189.231 93.7975C189.144 93.7796 189.049 93.7039 188.948 93.551C188.747 93.2462 188.531 92.6483 188.309 91.6582L188.642 90.1424C188.965 91.5545 189.344 92.5291 189.754 93.172Z" fill="#F11A1A" stroke="#E80D0D" stroke-width="0.041235"/>
<path d="M160.202 82.4259L160.438 83.1229L160.985 83.9736L161.374 84.3597L162.232 85.3641L162.936 86.6795L162.861 87.2228L162.325 88.699L151.257 111.088L150.564 112.099L150.099 112.256L149.166 111.795L149.009 111.331L149.391 110.165L150.467 107.989L156.076 96.2511L156.999 94.3854L156.842 93.9207L155.909 93.4595L155.212 93.6954L154.826 94.085L147.215 109.089L146.907 109.711L146.521 110.101L146.057 110.258L145.124 109.797L144.967 109.332L145.195 108.478L145.503 107.856L146.579 105.679L152.803 92.698L152.956 92.387L152.799 91.9224L151.866 91.4612L151.169 91.6971L150.783 92.0866L150.476 92.7086L142.865 107.713L142.479 108.103L142.247 108.181L142.014 108.26L141.081 107.799L141.003 107.566L141.074 107.049L141.078 107.023L141.232 106.712L141.074 107.049L148.145 91.9435L148.76 90.6997L148.914 90.3887L148.757 89.924L147.824 89.4629L147.127 89.6987L145.204 93.1979L138.59 105.793L138.204 106.183L137.972 106.261L137.661 106.108L137.039 105.8L136.882 105.336L136.957 104.792L137.11 104.481L137.572 103.548L138.187 102.305L146.487 85.5132L147.41 83.6474L148.024 82.4036L148.332 81.7817L148.639 81.1598L149.179 80.4592L149.565 80.0697L149.797 79.9911L150.494 79.7552L151.813 79.8268L152.9 79.977L153.676 79.9735L154.373 79.7376L155.07 79.5017L155.688 79.0335L155.995 78.4116L158.837 72.2711L159.145 71.6492L160.142 69.2402L160.296 68.9292L165.271 71.3887L161.042 79.5522L160.427 80.796L160.274 81.107L160.199 81.6503L160.202 82.4259Z" fill="#F11A1A"/>
<path d="M201.231 98.5468C198.965 102.359 195.853 105.162 192.668 106.62C189.482 108.079 186.26 108.181 183.716 106.669C181.172 105.157 179.721 102.279 179.478 98.7828C179.237 95.2887 180.21 91.2152 182.475 87.4027C184.74 83.5902 187.852 80.7879 191.037 79.3297C194.223 77.8707 197.445 77.769 199.989 79.2806C202.533 80.7923 203.985 83.6708 204.227 87.1667C204.469 90.6608 203.496 94.7343 201.231 98.5468Z" fill="#F11A1A" stroke="#E80D0D" stroke-width="0.730263"/>
<path d="M180.338 100.456L181.425 99.9185L182.944 100.989L185.948 101.17L190.84 103.8L189.51 107.112L189.95 107.832L187.857 108.294L187.167 108.479L186.937 108.541L186.248 108.725L186.018 108.787L185.62 109.14L179.793 119.569L175.118 115.895L180.896 106.218L180.88 105.237L180.756 104.778L180.633 104.318L180.572 104.088L179.849 102.311L180.079 102.25L180.354 101.437L180.338 100.456Z" fill="#F11A1A"/>
<path d="M179.849 102.311L180.079 102.25L180.354 101.437L180.338 100.456L181.425 99.9185L182.944 100.989L185.948 101.17L190.84 103.8L189.51 107.112L189.95 107.832L187.857 108.294L187.167 108.479L186.937 108.541L186.248 108.725L186.018 108.787L185.62 109.14L179.793 119.569L175.118 115.895L180.896 106.218L180.88 105.237M179.849 102.311L180.156 102.722M179.849 102.311L180.572 104.088L180.633 104.318L180.756 104.778L180.88 105.237M180.88 105.237L180.941 105.467" stroke="#E80D0D" stroke-width="0.146053"/>
<path d="M153.384 87.8684C152.435 88.748 151.391 89.2811 150.473 89.4328C149.554 89.5845 148.762 89.3544 148.311 88.7115C147.86 88.0685 147.815 87.1061 148.122 86.0821C148.429 85.0584 149.086 83.9758 150.036 83.0964C150.985 82.2171 152.046 81.7084 152.981 81.5811C153.918 81.4538 154.727 81.7082 155.178 82.3512C155.629 82.9941 155.657 83.9318 155.333 84.9312C155.009 85.9305 154.334 86.9888 153.384 87.8684Z" fill="white" stroke="#E80D0D" stroke-width="0.0361503"/>
<path d="M157.614 86.1239L154.945 81.4126L147.35 87.3119L150.019 92.0232L157.614 86.1239Z" fill="#F11A1A" stroke="#E80D0D" stroke-width="0.0361393"/>
<path d="M201.64 90.4925C203.108 92.1579 199.374 98.0908 195.952 102.168C192.53 106.245 189.572 106.837 188.105 105.171C186.638 103.506 188.231 99.0877 191.653 95.0106C195.075 90.9336 200.173 88.8271 201.64 90.4925Z" fill="white"/>
<path d="M198.211 84.7292L182.697 97.3301L187.6 105.493L203.113 92.8924L198.211 84.7292Z" fill="#F11A1A"/>
</g>
</svg>
